<?xml version="1.0" encoding="UTF-8"?>
<svg id="Layer_1" data-name="Layer 1" xmlns="http://www.w3.org/2000/svg" viewBox="0 0 36 36">
  <defs>
    <style>
      .cls-1 {
        fill-rule: evenodd;
      }
    </style>
  </defs>
  <path id="github-_142_" data-name="github-[#142]" class="cls-1" d="M18,.55c9.64,0,17.45,8.01,17.45,17.89,0,7.9-4.99,14.61-11.92,16.98-.88.18-1.2-.38-1.2-.86,0-.59.02-2.52.02-4.91,0-1.67-.56-2.76-1.18-3.31,3.89-.44,7.97-1.96,7.97-8.83,0-1.95-.68-3.55-1.8-4.8.18-.45.78-2.27-.17-4.74,0,0-1.46-.48-4.79,1.83-1.39-.4-2.89-.6-4.37-.6-1.48,0-2.98.21-4.37.6-3.34-2.31-4.8-1.83-4.8-1.83-.95,2.46-.35,4.28-.17,4.74-1.12,1.25-1.8,2.85-1.8,4.8,0,6.86,4.08,8.39,7.95,8.84-.5.45-.95,1.24-1.11,2.39-.99.46-3.52,1.25-5.08-1.49,0,0-.92-1.72-2.68-1.84,0,0-1.7-.02-.12,1.09,0,0,1.14.55,1.94,2.62,0,0,1.02,3.19,5.88,2.11,0,1.5.02,2.91.02,3.33,0,.47-.32,1.03-1.19.86C5.55,33.06.55,26.35.55,18.44.55,8.56,8.36.55,18,.55"/>
  <path id="github-_142_-2" data-name="github-[#142]" class="cls-1" d="M18,.55c9.64,0,17.45,8.01,17.45,17.89,0,7.9-4.99,14.61-11.92,16.98-.88.18-1.2-.38-1.2-.86,0-.59.02-2.52.02-4.91,0-1.67-.56-2.76-1.18-3.31,3.89-.44,7.97-1.96,7.97-8.83,0-1.95-.68-3.55-1.8-4.8.18-.45.78-2.27-.17-4.74,0,0-1.46-.48-4.79,1.83-1.39-.4-2.89-.6-4.37-.6-1.48,0-2.98.21-4.37.6-3.34-2.31-4.8-1.83-4.8-1.83-.95,2.46-.35,4.28-.17,4.74-1.12,1.25-1.8,2.85-1.8,4.8,0,6.86,4.08,8.39,7.95,8.84-.5.45-.95,1.24-1.11,2.39-.99.46-3.52,1.25-5.08-1.49,0,0-.92-1.72-2.68-1.84,0,0-1.7-.02-.12,1.09,0,0,1.14.55,1.94,2.62,0,0,1.02,3.19,5.88,2.11,0,1.5.02,2.91.02,3.33,0,.47-.32,1.03-1.19.86C5.55,33.06.55,26.35.55,18.44.55,8.56,8.36.55,18,.55"/>
</svg>